<?xml version="1.0" encoding="UTF-8"?>
<svg version="1.1" xmlns="http://www.w3.org/2000/svg" width="500" height="500">
<path d="M0 0 C2.44983869 -0.01744522 4.89966829 -0.03621107 7.3494873 -0.05622864 C12.47705819 -0.08903054 17.60379331 -0.09412833 22.73144531 -0.08178711 C29.2540743 -0.06993221 35.77244953 -0.14454668 42.2942276 -0.24279308 C47.35471023 -0.30610809 52.41419437 -0.31341444 57.47502136 -0.30562782 C59.87651313 -0.31014935 62.27805583 -0.33350611 64.67915344 -0.37724876 C80.82549593 -0.63979778 91.12319252 1.68565125 104.01349163 11.5909481 C107.46027693 14.10036115 111.16834799 16.12860176 114.90625 18.16796875 C115.73020264 18.62300781 116.55415527 19.07804687 117.40307617 19.546875 C119.63167002 20.73618982 121.86143623 21.92314734 124.09375 23.10546875 C124.93244629 23.55277344 125.77114258 24.00007813 126.63525391 24.4609375 C139.84405853 31.453402 153.2617649 37.18607852 167.35888672 42.14160156 C169.80084055 43.0022366 172.23102696 43.88916151 174.66015625 44.78515625 C184.92525764 48.47699096 195.35038385 50.84998702 206.05786133 52.92651367 C207.17056396 53.15314697 208.2832666 53.37978027 209.4296875 53.61328125 C210.42532715 53.8055127 211.4209668 53.99774414 212.44677734 54.19580078 C215.70645358 55.31603263 216.97008018 56.38739823 219.09375 59.10546875 C219.59711456 62.33171654 219.59711456 62.33171654 219.60168457 66.23397827 C219.61104451 67.31225496 219.61104451 67.31225496 219.62059355 68.41231501 C219.63655451 70.82257313 219.62390694 73.23182413 219.61132812 75.64208984 C219.61674876 77.37051483 219.62387108 79.0989352 219.63256836 80.8273468 C219.65083623 85.52896511 219.64371347 90.23023299 219.63105202 94.93185759 C219.62091313 99.8690201 219.63032287 104.80615293 219.63659668 109.74331665 C219.64388277 118.05419267 219.63427301 126.36492678 219.61523438 134.67578125 C219.59359259 144.23220262 219.60041999 153.7882809 219.62254 163.34469354 C219.6408215 171.57692655 219.64318682 179.80905743 219.63278532 188.04130423 C219.62660317 192.94479247 219.62556425 197.84812091 219.63893127 202.75159836 C219.72886504 240.98512893 214.08735285 273.0402477 196.09375 307.10546875 C195.48917969 308.25660156 194.88460938 309.40773438 194.26171875 310.59375 C186.34774115 325.03884175 176.35118206 338.07159734 165.45703125 350.3828125 C163.03314593 353.0593198 163.03314593 353.0593198 161.09375 356.10546875 C160.43375 356.10546875 159.77375 356.10546875 159.09375 356.10546875 C158.8455249 356.67821533 158.5972998 357.25096191 158.34155273 357.84106445 C156.90250865 360.45251697 155.23366252 362.22454536 153.12890625 364.3359375 C152.33468262 365.13435059 151.54045898 365.93276367 150.72216797 366.75537109 C149.45203857 368.01148193 149.45203857 368.01148193 148.15625 369.29296875 C147.28887207 370.1535791 146.42149414 371.01418945 145.52783203 371.90087891 C139.62882261 377.70497443 133.69231149 383.10435818 127.09375 388.10546875 C125.82312153 389.10277031 124.55368792 390.10159524 123.28515625 391.1015625 C108.37148317 402.77949648 92.82386279 413.21296261 76.09375 422.10546875 C75.48450684 422.43466309 74.87526367 422.76385742 74.24755859 423.10302734 C65.4393789 427.83504382 56.33904041 431.80562012 47.09375 435.60546875 C46.03099854 436.05140381 44.96824707 436.49733887 43.87329102 436.95678711 C31.31329414 442.00359517 23.19089171 439.19240635 11.09375 434.10546875 C10.30323242 433.77337402 9.51271484 433.4412793 8.69824219 433.09912109 C-36.81576904 413.74435568 -80.86310309 381.66427374 -110.90625 342.10546875 C-111.69773438 341.11933594 -112.48921875 340.13320313 -113.3046875 339.1171875 C-119.89026077 330.87120363 -125.5041858 322.16116605 -130.90625 313.10546875 C-131.49237061 312.14084717 -131.49237061 312.14084717 -132.09033203 311.15673828 C-151.22701793 279.54065251 -158.04242295 245.09108685 -158.06738281 208.54077148 C-158.07202465 206.93107493 -158.07705108 205.32137945 -158.08242798 203.71168518 C-158.09540487 199.38587054 -158.10196532 195.0600713 -158.10643864 190.73424029 C-158.1093876 188.02750176 -158.1134952 185.32076729 -158.11794281 182.61403084 C-158.13156606 174.13142782 -158.14126327 165.64883427 -158.1451447 157.16622108 C-158.1496418 147.39573338 -158.16728737 137.62538443 -158.1961453 127.85493892 C-158.21774191 120.27926677 -158.22784756 112.70363379 -158.22918582 105.12793118 C-158.23023338 100.61134505 -158.23613347 96.09489029 -158.25400543 91.57833672 C-158.2704557 87.34039991 -158.27265659 83.10269387 -158.26386642 78.86473656 C-158.26309497 77.31070081 -158.26745302 75.75665275 -158.27732468 74.20264816 C-158.29001296 72.08102545 -158.28418577 69.96022466 -158.27374268 67.83860779 C-158.27520924 66.65200782 -158.2766758 65.46540785 -158.2781868 64.2428503 C-157.86427938 60.75143591 -157.04755316 58.87446141 -154.90625 56.10546875 C-151.921875 54.953125 -151.921875 54.953125 -148.15625 54.16796875 C-146.68982161 53.83588067 -145.22369183 53.50247212 -143.7578125 53.16796875 C-142.14063923 52.81373709 -140.52345131 52.45957233 -138.90625 52.10546875 C-103.98386912 44.32332259 -70.10646443 29.89633768 -39.93359375 10.703125 C-39.31616806 10.32353638 -38.69874237 9.94394775 -38.06260681 9.55285645 C-35.86723805 8.1550328 -35.86723805 8.1550328 -33.98231506 6.35940552 C-24.22867368 -1.57359895 -11.92744896 -0.00474428 0 0 Z M66.09375 163.10546875 C68.53335214 165.64265497 71.07895407 168.02980302 73.71875 170.35546875 C74.30914062 170.87625 74.89953125 171.39703125 75.5078125 171.93359375 C77.03318197 173.30356197 77.03318197 173.30356197 79.09375 173.10546875 C79.47080078 173.94271484 79.47080078 173.94271484 79.85546875 174.796875 C81.28673086 177.46525326 83.03451116 179.66303313 84.90625 182.04296875 C96.20841934 197.4065347 97.90274604 216.20591952 95.6640625 234.64453125 C91.64428367 253.05611083 80.26204 266.7109553 65.09375 277.10546875 C68.60898133 278.27721253 69.72193944 277.86745984 73.21484375 276.84765625 C74.22667725 276.55455566 75.23851074 276.26145508 76.28100586 275.95947266 C77.88987671 275.47486572 77.88987671 275.47486572 79.53125 274.98046875 C80.62638916 274.65353027 81.72152832 274.3265918 82.84985352 273.98974609 C90.14469281 271.77655221 97.2392595 269.47274874 104.09375 266.10546875 C104.72265137 265.79915527 105.35155273 265.4928418 105.99951172 265.17724609 C125.62597952 255.51759469 141.99067801 242.90339526 156.09375 226.10546875 C156.98900391 225.09806641 156.98900391 225.09806641 157.90234375 224.0703125 C159.29022598 222.20321729 159.29022598 222.20321729 158.96875 220.11328125 C157.14157725 215.92057235 153.99648216 212.59533198 151.09375 209.10546875 C150.44277344 208.30625 149.79179687 207.50703125 149.12109375 206.68359375 C129.60707506 183.77741854 99.23157972 169.0417758 70.09375 163.10546875 C68.77375 163.10546875 67.45375 163.10546875 66.09375 163.10546875 Z M-84.90625 204.10546875 C-91.60286256 211.08043881 -91.60286256 211.08043881 -96.90625 219.10546875 C-95.77994005 229.3910162 -80.8976081 241.1699162 -73.17724609 247.52978516 C-56.07373752 260.84432772 -36.73023207 269.90443232 -15.90625 275.66796875 C-14.95621094 275.93174316 -14.00617188 276.19551758 -13.02734375 276.46728516 C-7.96790822 277.96088016 -7.96790822 277.96088016 -2.90625 277.10546875 C-3.5353125 276.69296875 -4.164375 276.28046875 -4.8125 275.85546875 C-19.93716782 265.65087359 -29.51345771 252.06105316 -33.5859375 234.109375 C-37.07558442 215.34654736 -33.19827249 197.50844569 -22.84375 181.48046875 C-18.05952753 174.78738984 -12.40603872 170.10452622 -5.90625 165.10546875 C-5.24625 164.44546875 -4.58625 163.78546875 -3.90625 163.10546875 C-33.08201679 163.10546875 -64.90092994 184.61310562 -84.90625 204.10546875 Z " fill="#FE3031" transform="translate(218.90625,28.89453125)"/>
<path d="M0 0 C1.88021599 -0.02562767 1.88021599 -0.02562767 3.79841614 -0.05177307 C7.21094599 -0.0897717 10.6204825 -0.09651933 14.03300714 -0.08570409 C16.89768931 -0.08043746 19.76210573 -0.09639398 22.62673843 -0.11195368 C29.39737085 -0.14808728 36.16732025 -0.14757672 42.93798828 -0.12402344 C49.88132412 -0.10051628 56.8223364 -0.13906042 63.76531231 -0.20856005 C69.76077346 -0.26631275 75.75550683 -0.28452262 81.75123203 -0.27220815 C85.31695513 -0.26527299 88.88109427 -0.27236944 92.44656754 -0.31788826 C109.13052974 -0.51208726 121.04235064 0.04231404 134.09326172 10.95336914 C153.0955655 24.46650195 175.17802621 35.14310467 197.09326172 42.95336914 C197.92696289 43.25678223 198.76066406 43.56019531 199.61962891 43.87280273 C218.76943564 50.7914193 238.04230861 55.04432222 258.25976562 57.43457031 C259.35208496 57.57612549 260.4444043 57.71768066 261.56982422 57.86352539 C262.54000488 57.97833252 263.51018555 58.09313965 264.50976562 58.21142578 C267.8554236 59.1722512 268.98236961 60.17435001 271.09326172 62.95336914 C271.48400499 65.79308378 271.62976481 68.24406932 271.59446716 71.08239746 C271.60000156 71.90883208 271.60553596 72.7352667 271.61123806 73.58674479 C271.6248695 76.36094997 271.60986111 79.13425928 271.5949707 81.90844727 C271.59875344 83.89626956 271.6042531 85.88408922 271.61134338 87.87190247 C271.62533563 93.27997229 271.61409522 98.68772519 271.59763217 104.09577751 C271.58377889 109.76791507 271.59024325 115.44003425 271.59376526 121.11218262 C271.59647068 130.65548799 271.58297528 140.19866787 271.55981445 149.74194336 C271.53332452 160.73207675 271.53141749 171.72199868 271.54320282 182.71215296 C271.55404355 193.31288479 271.54773659 203.91354108 271.53364754 214.51426697 C271.52792972 219.00815138 271.52793731 223.50197974 271.53271294 227.99586487 C271.53754099 233.31469739 271.52714384 238.63330352 271.50575829 243.95209312 C271.50026408 245.88843205 271.49965582 247.82479307 271.50471115 249.76113319 C271.54344676 266.74927653 269.79183559 283.27866812 265.28076172 299.70336914 C265.01924316 300.67032715 264.75772461 301.63728516 264.48828125 302.63354492 C255.88293591 333.72132403 240.08580861 362.74881344 220.09326172 387.95336914 C219.32369141 388.93563477 218.55412109 389.91790039 217.76123047 390.92993164 C203.53039696 408.72488381 187.15428234 426.05028132 169.09326172 439.95336914 C167.94604137 440.88626988 166.80170899 441.82272883 165.65966797 442.76196289 C156.80558457 450.01917833 147.6731863 456.68745472 138.09326172 462.95336914 C137.32304687 463.45980957 136.55283203 463.96625 135.75927734 464.48803711 C114.22018306 478.54034983 91.47596067 489.75009897 67.09326172 497.95336914 C66.23861328 498.25210937 65.38396484 498.55084961 64.50341797 498.85864258 C55.08722684 501.96714635 47.87139713 501.40357948 38.59326172 498.14086914 C37.24735962 497.67716919 37.24735962 497.67716919 35.87426758 497.20410156 C-6.8259233 482.07982063 -45.1593123 457.28077709 -78.12719727 426.39208984 C-80.80203691 423.87668417 -80.80203691 423.87668417 -83.90673828 421.95336914 C-83.90673828 421.29336914 -83.90673828 420.63336914 -83.90673828 419.95336914 C-84.89673828 419.62336914 -85.88673828 419.29336914 -86.90673828 418.95336914 C-86.90673828 418.29336914 -86.90673828 417.63336914 -86.90673828 416.95336914 C-87.48552734 416.70973633 -88.06431641 416.46610352 -88.66064453 416.21508789 C-91.31432483 414.72441183 -92.8424135 413.05970675 -94.84423828 410.76586914 C-95.63185547 409.86481445 -96.41947266 408.96375977 -97.23095703 408.03540039 C-97.65940918 407.53991699 -98.08786133 407.04443359 -98.52929688 406.53393555 C-99.97866177 404.87083942 -101.45065428 403.22991957 -102.92626953 401.59008789 C-116.0189081 386.92777607 -127.13695977 370.99835898 -136.90673828 353.95336914 C-137.5503833 352.83091797 -137.5503833 352.83091797 -138.20703125 351.68579102 C-147.41724693 335.40662146 -154.47387051 318.28660106 -159.28173828 300.20336914 C-159.62156738 298.93058105 -159.62156738 298.93058105 -159.96826172 297.63208008 C-164.02440729 281.38919938 -165.35359209 265.44149395 -165.31079102 248.75024414 C-165.31651004 246.70307039 -165.32348014 244.65589981 -165.33158875 242.60873413 C-165.34934544 237.11391828 -165.3483877 231.61926357 -165.34264636 226.1244278 C-165.33953547 221.52588841 -165.34566644 216.92737914 -165.35168511 212.32884407 C-165.36566485 201.49174564 -165.36421792 190.6547262 -165.3527832 179.81762695 C-165.34124875 168.63879558 -165.35548148 157.46020263 -165.38217968 146.28140259 C-165.40429388 136.6615022 -165.4109855 127.04167694 -165.40510327 117.42175293 C-165.40172943 111.68463403 -165.40417993 105.94766876 -165.42135429 100.21057129 C-165.43675792 94.83246302 -165.43294159 89.45471202 -165.41404915 84.07661819 C-165.41034804 82.10086767 -165.4135157 80.12509099 -165.42393494 78.14936447 C-165.43703972 75.46007916 -165.42569284 72.77199603 -165.40794373 70.08276367 C-165.41754873 69.29514523 -165.42715374 68.50752678 -165.43704981 67.69604111 C-165.36539376 62.44792649 -165.36539376 62.44792649 -163.09149265 59.99603271 C-159.93908529 58.49156138 -156.73327331 58.007678 -153.30908203 57.52368164 C-151.77937129 57.28625904 -150.24966779 57.04878983 -148.7199707 56.8112793 C-147.92336029 56.69198059 -147.12674988 56.57268188 -146.30599976 56.44976807 C-132.62403223 54.38560869 -119.10726185 52.19719704 -105.90673828 47.95336914 C-105.01277344 47.6673584 -104.11880859 47.38134766 -103.19775391 47.08666992 C-76.29390651 38.34971342 -50.98808894 26.21760878 -27.23095703 10.84008789 C-26.56536711 10.40987807 -25.89977718 9.97966825 -25.21401787 9.53642178 C-22.88219614 7.9866349 -22.88219614 7.9866349 -20.75070381 6.1737299 C-13.91414015 0.71885196 -8.5945386 -0.06983167 0 0 Z M-26.54156303 28.2315731 C-30.26301276 30.9407074 -34.23768937 33.14232251 -38.28173828 35.32836914 C-39.05886893 35.75051539 -39.83599958 36.17266165 -40.63667965 36.60760021 C-42.72103605 37.73379482 -44.81311698 38.84451235 -46.90673828 39.95336914 C-47.53080566 40.28997559 -48.15487305 40.62658203 -48.79785156 40.97338867 C-69.36939535 52.02421798 -91.34106821 60.09405174 -113.90673828 65.95336914 C-114.69226074 66.1604248 -115.4777832 66.36748047 -116.28710938 66.58081055 C-124.43334459 68.70272874 -132.60147427 70.28757745 -140.91845703 71.56274414 C-141.78772827 71.69793457 -142.65699951 71.833125 -143.5526123 71.97241211 C-145.67033436 72.30146346 -147.78849172 72.62771129 -149.90673828 72.95336914 C-149.97702119 98.05004691 -150.02982054 123.14670979 -150.0621748 148.24346638 C-150.07760106 159.8980216 -150.09860891 171.55251544 -150.13305664 183.20703125 C-150.16308945 193.37277511 -150.18234405 203.53847448 -150.18900377 213.70426148 C-150.19289264 219.07999477 -150.20194225 224.45560085 -150.22392845 229.83129311 C-150.24451364 234.90625599 -150.25052827 239.98104105 -150.24606133 245.05604172 C-150.24687679 246.90412429 -150.2527097 248.75221372 -150.26435471 250.60025978 C-150.35745877 266.15823018 -148.82343076 281.41187928 -144.65673828 296.45336914 C-144.44766846 297.22269775 -144.23859863 297.99202637 -144.02319336 298.78466797 C-139.88149598 313.55247789 -134.18911238 327.46998613 -126.90673828 340.95336914 C-126.59124023 341.54424316 -126.27574219 342.13511719 -125.95068359 342.74389648 C-117.80726407 357.88728128 -107.69773074 371.61383138 -96.90673828 384.95336914 C-96.06804871 386.00012565 -95.22950289 387.04699736 -94.39111328 388.09399414 C-90.73882058 392.61703213 -87.05754993 396.87723476 -82.90673828 400.95336914 C-81.96125317 401.90763944 -81.01729302 402.8634226 -80.07470703 403.82055664 C-74.52689934 409.42932925 -68.92547484 414.84752737 -62.90673828 419.95336914 C-61.93865234 420.8105957 -60.97056641 421.66782227 -59.97314453 422.55102539 C-30.67146345 448.38088146 3.96164863 469.62710233 40.78076172 482.82836914 C42.21282959 483.37485107 42.21282959 483.37485107 43.67382812 483.93237305 C54.81536035 487.70696209 64.43041804 483.14344401 74.78076172 478.76586914 C75.73136475 478.36859619 76.68196777 477.97132324 77.66137695 477.56201172 C80.478905 476.37450158 83.28793175 475.16938713 86.09326172 473.95336914 C86.85864258 473.62175781 87.62402344 473.29014648 88.41259766 472.94848633 C104.4122905 465.92262942 120.06302032 457.38965708 134.09326172 446.95336914 C135.20720356 446.16286278 136.32326544 445.37533917 137.44091797 444.59008789 C148.96148027 436.48573228 159.72343053 427.63908534 170.37548828 418.43408203 C172.74955863 416.38764419 175.13480707 414.35435156 177.52075195 412.32177734 C182.26748308 408.30628398 182.26748308 408.30628398 185.09326172 402.95336914 C185.75326172 402.95336914 186.41326172 402.95336914 187.09326172 402.95336914 C187.09326172 402.29336914 187.09326172 401.63336914 187.09326172 400.95336914 C187.75326172 400.95336914 188.41326172 400.95336914 189.09326172 400.95336914 C190.49627609 399.64450103 190.49627609 399.64450103 191.96826172 397.82836914 C194.22219284 395.1637839 196.47914385 392.50871939 198.80029297 389.90258789 C210.01551232 377.21955474 219.4178002 363.47148843 228.09326172 348.95336914 C228.83769531 347.80481445 228.83769531 347.80481445 229.59716797 346.63305664 C245.88401207 321.15989992 256.33535372 287.85815955 256.21351624 257.54405212 C256.21437066 256.74823669 256.21522509 255.95242127 256.2161054 255.13249022 C256.21773902 252.49325107 256.21227388 249.85407694 256.20678711 247.21484375 C256.20650475 245.3120626 256.20666392 243.40928133 256.20722961 241.50650024 C256.2075157 236.36049348 256.20164949 231.21451019 256.19465566 226.06850886 C256.18839068 220.6833335 256.18781583 215.29815757 256.18663025 209.91297913 C256.1835262 199.72409989 256.1753253 189.53523143 256.16528076 179.34635693 C256.15409085 167.74298471 256.14860192 156.13961197 256.14358532 144.53623569 C256.13314191 120.67527421 256.11556042 96.81432228 256.09326172 72.95336914 C255.40538385 72.84078892 254.71750599 72.72820869 254.00878334 72.61221695 C250.85902805 72.09551483 247.70978779 71.57573586 244.56054688 71.0559082 C242.93748375 70.79035629 242.93748375 70.79035629 241.28163147 70.5194397 C233.56943333 69.24333509 226.02035326 67.73695181 218.46826172 65.70336914 C217.34983887 65.40672363 216.23141602 65.11007813 215.07910156 64.80444336 C204.16663229 61.83113248 193.58950172 58.15419893 183.09326172 53.95336914 C182.20944824 53.60016602 181.32563477 53.24696289 180.41503906 52.88305664 C159.00158918 44.22266156 134.69557028 33.62318714 117.14680481 18.39685059 C112.29375789 14.94798824 107.41389615 15.18544327 101.63208008 15.16357422 C99.92791176 15.12874687 99.92791176 15.12874687 98.1893158 15.09321594 C94.43706379 15.02540949 90.68588358 14.99608728 86.93310547 14.97290039 C84.30538293 14.94664669 81.67766179 14.92025181 79.04994202 14.89372253 C73.53465847 14.84349055 68.01963069 14.82048924 62.50415039 14.80712891 C56.18565966 14.79088953 49.87087678 14.70342016 43.5535993 14.58274156 C38.08979187 14.48210706 32.62719362 14.43744303 27.16247088 14.43277854 C23.91606981 14.42889549 20.67449002 14.39692153 17.42887688 14.32032204 C-0.7802394 13.92282032 -12.01782862 17.14586457 -26.54156303 28.2315731 Z " fill="#1800AD" transform="translate(196.90673828125,-0.953369140625)"/>
<path d="M0 0 C1.12346329 -0.00018127 1.12346329 -0.00018127 2.2696228 -0.00036621 C21.28035289 0.04288285 39.9771352 2.31640279 58.0625 8.375 C59.795 8.89320313 59.795 8.89320313 61.5625 9.421875 C92.41912384 18.96650865 121.62854676 38.29592119 140.4375 64.8125 C141.14362427 65.7873938 141.14362427 65.7873938 141.86401367 66.78198242 C144.752641 71.05864432 145.90546421 74.08238897 145.0625 79.375 C143.77553041 81.818463 142.59365663 83.7190322 140.9375 85.875 C140.49374023 86.47030518 140.04998047 87.06561035 139.59277344 87.67895508 C126.95644864 104.23444077 112.11944375 117.04454991 94.0625 127.375 C92.42667969 128.34179688 92.42667969 128.34179688 90.7578125 129.328125 C71.87070913 140.18653624 51.43218592 145.89127387 30.0625 149.375 C28.68098838 149.62238911 27.29947781 149.86978407 25.91796875 150.1171875 C-20.36853709 157.3140244 -70.22302281 144.74756473 -108.078125 117.3671875 C-117.91232504 109.93901504 -127.293206 101.04704357 -134.9375 91.375 C-135.53763916 90.61872314 -135.53763916 90.61872314 -136.14990234 89.84716797 C-137.46164406 88.16768505 -138.73500043 86.46490197 -140 84.75 C-140.77472656 83.70585937 -141.54945313 82.66171875 -142.34765625 81.5859375 C-144.34146226 77.55913519 -144.14044295 75.66354053 -142.9375 71.375 C-141.44140625 68.70703125 -141.44140625 68.70703125 -139.5 66.1875 C-138.41912109 64.78177734 -138.41912109 64.78177734 -137.31640625 63.34765625 C-136.53136719 62.36667969 -135.74632812 61.38570312 -134.9375 60.375 C-134.12152344 59.34246094 -133.30554688 58.30992187 -132.46484375 57.24609375 C-127.72984174 51.34780226 -122.8568131 46.08240636 -116.9375 41.375 C-115.88651582 40.51326827 -114.83575342 39.65126602 -113.78515625 38.7890625 C-96.1678036 24.47883998 -75.87175447 13.47111064 -53.9375 7.375 C-53.17614746 7.16004883 -52.41479492 6.94509766 -51.63037109 6.72363281 C-49.11293413 6.02376237 -46.58986473 5.35057841 -44.0625 4.6875 C-43.3089624 4.48471436 -42.5554248 4.28192871 -41.77905273 4.07299805 C-28.11413426 0.64926337 -14.02718423 -0.0353295 0 0 Z M36.0625 18.375 C38.50210214 20.91218622 41.04770407 23.29933427 43.6875 25.625 C44.27789062 26.14578125 44.86828125 26.6665625 45.4765625 27.203125 C47.00193197 28.57309322 47.00193197 28.57309322 49.0625 28.375 C49.43955078 29.21224609 49.43955078 29.21224609 49.82421875 30.06640625 C51.25548086 32.73478451 53.00326116 34.93256438 54.875 37.3125 C66.17716934 52.67606595 67.87149604 71.47545077 65.6328125 89.9140625 C61.61303367 108.32564208 50.23079 121.98048655 35.0625 132.375 C38.57773133 133.54674378 39.69068944 133.13699109 43.18359375 132.1171875 C44.19542725 131.82408691 45.20726074 131.53098633 46.24975586 131.22900391 C47.85862671 130.74439697 47.85862671 130.74439697 49.5 130.25 C50.59513916 129.92306152 51.69027832 129.59612305 52.81860352 129.25927734 C60.11344281 127.04608346 67.2080095 124.74227999 74.0625 121.375 C74.69140137 121.06868652 75.32030273 120.76237305 75.96826172 120.44677734 C95.59472952 110.78712594 111.95942801 98.17292651 126.0625 81.375 C126.95775391 80.36759766 126.95775391 80.36759766 127.87109375 79.33984375 C129.25897598 77.47274854 129.25897598 77.47274854 128.9375 75.3828125 C127.11032725 71.1901036 123.96523216 67.86486323 121.0625 64.375 C120.41152344 63.57578125 119.76054687 62.7765625 119.08984375 61.953125 C99.57582506 39.04694979 69.20032972 24.31130705 40.0625 18.375 C38.7425 18.375 37.4225 18.375 36.0625 18.375 Z M-114.9375 59.375 C-121.63411256 66.34997006 -121.63411256 66.34997006 -126.9375 74.375 C-125.81119005 84.66054745 -110.9288581 96.43944745 -103.20849609 102.79931641 C-86.10498752 116.11385897 -66.76148207 125.17396357 -45.9375 130.9375 C-44.98746094 131.20127441 -44.03742188 131.46504883 -43.05859375 131.73681641 C-37.99915822 133.23041141 -37.99915822 133.23041141 -32.9375 132.375 C-33.5665625 131.9625 -34.195625 131.55 -34.84375 131.125 C-49.96841782 120.92040484 -59.54470771 107.33058441 -63.6171875 89.37890625 C-67.10683442 70.61607861 -63.22952249 52.77797694 -52.875 36.75 C-48.09077753 30.05692109 -42.43728872 25.37405747 -35.9375 20.375 C-35.2775 19.715 -34.6175 19.055 -33.9375 18.375 C-63.11326679 18.375 -94.93217994 39.88263687 -114.9375 59.375 Z " fill="#1A00AB" transform="translate(248.9375,173.625)"/>
<path d="M0 0 C2.44983869 -0.01744522 4.89966829 -0.03621107 7.3494873 -0.05622864 C12.47705819 -0.08903054 17.60379331 -0.09412833 22.73144531 -0.08178711 C29.2540743 -0.06993221 35.77244953 -0.14454668 42.2942276 -0.24279308 C47.35471023 -0.30610809 52.41419437 -0.31341444 57.47502136 -0.30562782 C59.87651313 -0.31014935 62.27805583 -0.33350611 64.67915344 -0.37724876 C80.82549593 -0.63979778 91.12319252 1.68565125 104.01349163 11.5909481 C107.46027693 14.10036115 111.16834799 16.12860176 114.90625 18.16796875 C115.73020264 18.62300781 116.55415527 19.07804687 117.40307617 19.546875 C119.63167002 20.73618982 121.86143623 21.92314734 124.09375 23.10546875 C124.93244629 23.55277344 125.77114258 24.00007813 126.63525391 24.4609375 C139.84405853 31.453402 153.2617649 37.18607852 167.35888672 42.14160156 C169.80084055 43.0022366 172.23102696 43.88916151 174.66015625 44.78515625 C184.92525764 48.47699096 195.35038385 50.84998702 206.05786133 52.92651367 C207.17056396 53.15314697 208.2832666 53.37978027 209.4296875 53.61328125 C210.42532715 53.8055127 211.4209668 53.99774414 212.44677734 54.19580078 C215.70645358 55.31603263 216.97008018 56.38739823 219.09375 59.10546875 C219.59711456 62.33171654 219.59711456 62.33171654 219.60168457 66.23397827 C219.61104451 67.31225496 219.61104451 67.31225496 219.62059355 68.41231501 C219.63655451 70.82257313 219.62390694 73.23182413 219.61132812 75.64208984 C219.61674876 77.37051483 219.62387108 79.0989352 219.63256836 80.8273468 C219.65083623 85.52896511 219.64371347 90.23023299 219.63105202 94.93185759 C219.62091313 99.8690201 219.63032287 104.80615293 219.63659668 109.74331665 C219.64388277 118.05419267 219.63427301 126.36492678 219.61523438 134.67578125 C219.59359259 144.23220262 219.60041999 153.7882809 219.62254 163.34469354 C219.6408215 171.57692655 219.64318682 179.80905743 219.63278532 188.04130423 C219.62660317 192.94479247 219.62556425 197.84812091 219.63893127 202.75159836 C219.72886504 240.98512893 214.08735285 273.0402477 196.09375 307.10546875 C195.48917969 308.25660156 194.88460938 309.40773438 194.26171875 310.59375 C186.34774115 325.03884175 176.35118206 338.07159734 165.45703125 350.3828125 C163.03314593 353.0593198 163.03314593 353.0593198 161.09375 356.10546875 C160.43375 356.10546875 159.77375 356.10546875 159.09375 356.10546875 C158.8455249 356.67821533 158.5972998 357.25096191 158.34155273 357.84106445 C156.90250865 360.45251697 155.23366252 362.22454536 153.12890625 364.3359375 C152.33468262 365.13435059 151.54045898 365.93276367 150.72216797 366.75537109 C149.45203857 368.01148193 149.45203857 368.01148193 148.15625 369.29296875 C147.28887207 370.1535791 146.42149414 371.01418945 145.52783203 371.90087891 C139.62882261 377.70497443 133.69231149 383.10435818 127.09375 388.10546875 C125.82312153 389.10277031 124.55368792 390.10159524 123.28515625 391.1015625 C108.37148317 402.77949648 92.82386279 413.21296261 76.09375 422.10546875 C75.48450684 422.43466309 74.87526367 422.76385742 74.24755859 423.10302734 C65.4393789 427.83504382 56.33904041 431.80562012 47.09375 435.60546875 C46.03099854 436.05140381 44.96824707 436.49733887 43.87329102 436.95678711 C31.31329414 442.00359517 23.19089171 439.19240635 11.09375 434.10546875 C10.30323242 433.77337402 9.51271484 433.4412793 8.69824219 433.09912109 C-36.81576904 413.74435568 -80.86310309 381.66427374 -110.90625 342.10546875 C-111.69773438 341.11933594 -112.48921875 340.13320313 -113.3046875 339.1171875 C-119.89026077 330.87120363 -125.5041858 322.16116605 -130.90625 313.10546875 C-131.49237061 312.14084717 -131.49237061 312.14084717 -132.09033203 311.15673828 C-151.22701793 279.54065251 -158.04242295 245.09108685 -158.06738281 208.54077148 C-158.07202465 206.93107493 -158.07705108 205.32137945 -158.08242798 203.71168518 C-158.09540487 199.38587054 -158.10196532 195.0600713 -158.10643864 190.73424029 C-158.1093876 188.02750176 -158.1134952 185.32076729 -158.11794281 182.61403084 C-158.13156606 174.13142782 -158.14126327 165.64883427 -158.1451447 157.16622108 C-158.1496418 147.39573338 -158.16728737 137.62538443 -158.1961453 127.85493892 C-158.21774191 120.27926677 -158.22784756 112.70363379 -158.22918582 105.12793118 C-158.23023338 100.61134505 -158.23613347 96.09489029 -158.25400543 91.57833672 C-158.2704557 87.34039991 -158.27265659 83.10269387 -158.26386642 78.86473656 C-158.26309497 77.31070081 -158.26745302 75.75665275 -158.27732468 74.20264816 C-158.29001296 72.08102545 -158.28418577 69.96022466 -158.27374268 67.83860779 C-158.27520924 66.65200782 -158.2766758 65.46540785 -158.2781868 64.2428503 C-157.86427938 60.75143591 -157.04755316 58.87446141 -154.90625 56.10546875 C-151.921875 54.953125 -151.921875 54.953125 -148.15625 54.16796875 C-146.68982161 53.83588067 -145.22369183 53.50247212 -143.7578125 53.16796875 C-142.14063923 52.81373709 -140.52345131 52.45957233 -138.90625 52.10546875 C-103.98386912 44.32332259 -70.10646443 29.89633768 -39.93359375 10.703125 C-39.31616806 10.32353638 -38.69874237 9.94394775 -38.06260681 9.55285645 C-35.86723805 8.1550328 -35.86723805 8.1550328 -33.98231506 6.35940552 C-24.22867368 -1.57359895 -11.92744896 -0.00474428 0 0 Z M-36.97444153 25.68932915 C-41.51216131 29.015769 -46.5750398 31.52844208 -51.53125 34.16796875 C-52.62405273 34.75030273 -53.71685547 35.33263672 -54.84277344 35.93261719 C-79.4439708 48.85867004 -105.62649973 59.20905231 -132.77734375 65.38671875 C-136.19370916 66.17150182 -139.53926382 67.13231397 -142.90625 68.10546875 C-143.00011517 89.49956552 -143.07043432 110.89362784 -143.11349869 132.28788948 C-143.13403476 142.22389782 -143.16198184 152.15977746 -143.20800781 162.09570312 C-143.2481522 170.76614251 -143.27374768 179.43648859 -143.28260398 188.10701835 C-143.28777252 192.68869271 -143.29972824 197.27010038 -143.32917023 201.85168839 C-143.46874341 224.44709143 -143.40346982 246.42325039 -135.59375 267.98046875 C-135.29307617 268.8401123 -134.99240234 269.69975586 -134.68261719 270.58544922 C-125.73400209 295.7096892 -112.21445411 317.84523701 -94.90625 338.10546875 C-94.28105469 338.8428125 -93.65585938 339.58015625 -93.01171875 340.33984375 C-81.73709265 353.23783811 -69.48532753 365.64801824 -55.90625 376.10546875 C-54.74725936 377.05003255 -53.59121445 377.99821768 -52.4375 378.94921875 C-39.41256773 389.64315843 -25.49832004 398.70115068 -10.90625 407.10546875 C-9.20662109 408.08966797 -9.20662109 408.08966797 -7.47265625 409.09375 C0.30759927 413.47725448 8.39629183 417.13604241 16.59375 420.66796875 C17.62105225 421.12228271 18.64835449 421.57659668 19.70678711 422.04467773 C30.05526552 426.39207275 36.64453078 423.82793361 46.57714844 419.796875 C72.78959422 408.86024757 96.876197 393.8704346 118.47705078 375.46191406 C120.71247488 373.58634531 123.03582628 371.82814242 125.34375 370.04296875 C138.12179319 359.57584826 150.13297403 347.28293567 160.09375 334.10546875 C161.12450802 332.80066407 162.15723179 331.49741101 163.19140625 330.1953125 C170.26732509 321.21634984 176.53333234 312.08883051 182.09375 302.10546875 C182.46983398 301.44611328 182.84591797 300.78675781 183.23339844 300.10742188 C189.44857862 289.17745706 194.1316112 278.02959415 198.09375 266.10546875 C198.49464844 264.92597656 198.89554687 263.74648438 199.30859375 262.53125 C206.09913835 240.87838136 205.50856287 218.48372993 205.39793181 196.06175399 C205.37893442 191.54950971 205.3773967 187.03725674 205.37385559 182.52497864 C205.36460184 174.01516443 205.34008034 165.50546848 205.30980712 156.9957059 C205.27605295 147.29288099 205.25972475 137.59004987 205.24472082 127.88718069 C205.21352327 107.95987786 205.16089542 88.03268081 205.09375 68.10546875 C204.28825966 67.9067964 203.48276932 67.70812405 202.65287018 67.50343132 C199.62770874 66.75599632 196.60312383 66.00628036 193.57889557 65.25507927 C191.6409361 64.77441791 189.70234017 64.29632506 187.76373291 63.81828308 C179.19414354 61.68739744 170.86729245 59.33312859 162.59375 56.23046875 C161.43834717 55.80612549 160.28294434 55.38178223 159.0925293 54.94458008 C131.85360496 44.78881431 106.25932636 31.21585299 82.09375 15.10546875 C80.14398709 14.77889408 80.14398709 14.77889408 77.98852539 14.78421021 C77.15361572 14.76411896 76.31870605 14.74402771 75.45849609 14.72332764 C74.54535645 14.71166565 73.6322168 14.70000366 72.69140625 14.68798828 C71.72662354 14.66842072 70.76184082 14.64885315 69.76782227 14.62869263 C66.56402061 14.56872299 63.36038862 14.52596783 60.15625 14.48828125 C59.05739471 14.4751376 57.95853943 14.46199394 56.8263855 14.448452 C50.99498651 14.38319684 45.1636609 14.33434331 39.33203125 14.29541016 C34.53404914 14.25997861 29.73846192 14.19068129 24.94140625 14.09033203 C19.12799736 13.96887999 13.31678366 13.90831586 7.50216675 13.88906479 C5.30148783 13.87210642 3.10085542 13.83484735 0.90090942 13.77557755 C-14.75299823 13.37700389 -24.45651686 16.18382807 -36.97444153 25.68932915 Z " fill="#1900AC" transform="translate(218.90625,28.89453125)"/>
<path d="M0 0 C11.27146101 8.01482781 18.0924277 19.74519504 21.30078125 33.0546875 C23.71796085 48.29967173 19.61422503 63.09327024 10.6953125 75.54296875 C3.82017271 84.39567683 -8.19084196 91.82084643 -19.17578125 94.15234375 C-34.98290293 96.12576718 -49.26722203 93.94997402 -62.3046875 84.54296875 C-72.41107895 76.59280305 -80.34622812 64.03626451 -82.125 51.0859375 C-82.18429688 50.24675781 -82.24359375 49.40757812 -82.3046875 48.54296875 C-82.38460937 47.46660156 -82.46453125 46.39023438 -82.546875 45.28125 C-83.10467586 30.36828003 -78.02014971 18.36404424 -68.7421875 6.91796875 C-50.12718487 -13.0772337 -22.21398082 -14.04375397 0 0 Z " fill="#FC3032" transform="translate(280.3046875,206.45703125)"/>
<path d="M0 0 C1.9375 1.6875 1.9375 1.6875 3 4 C3 7.78865883 2.48372576 9.46708179 -0.07421875 12.28515625 C-3.54355547 15.50436722 -7.14297149 18.51314527 -10.8125 21.5 C-11.55298584 22.10585937 -12.29347168 22.71171875 -13.05639648 23.3359375 C-14.59968256 24.59765935 -16.14404681 25.8580635 -17.68945312 27.1171875 C-19.92579463 28.93953172 -22.15852946 30.7662092 -24.390625 32.59375 C-25.78102202 33.72944583 -27.17163813 34.8648735 -28.5625 36 C-29.19196533 36.51498047 -29.82143066 37.02996094 -30.4699707 37.56054688 C-33.70356916 40.19086523 -36.96661631 42.78139673 -40.26953125 45.32421875 C-41.2282312 46.06418091 -41.2282312 46.06418091 -42.20629883 46.8190918 C-44 48 -44 48 -47.125 48.8125 C-54.35191887 46.77010988 -58.97063767 36.88679419 -62.875 30.9375 C-63.46796875 30.06544922 -64.0609375 29.19339844 -64.671875 28.29492188 C-69.94118854 20.27560945 -69.94118854 20.27560945 -69 15 C-68 13.125 -68 13.125 -66 12 C-61.09622238 11.01924448 -61.09622238 11.01924448 -58 12 C-55.10716422 14.63741086 -53.08977127 17.70810303 -51 21 C-50.48953125 21.78503906 -49.9790625 22.57007813 -49.453125 23.37890625 C-48.270497 25.23589797 -47.12044757 27.10504951 -46 29 C-42.16647462 27.32921412 -39.05609981 24.83862003 -35.8125 22.25 C-35.2131665 21.77626953 -34.61383301 21.30253906 -33.99633789 20.81445312 C-28.18159569 16.19535568 -22.46249067 11.45877984 -16.7746582 6.68457031 C-6.28830635 -2.05053468 -6.28830635 -2.05053468 0 0 Z " fill="#1C00AA" transform="translate(280,230)"/>
<path d="M0 0 C1.9375 1.0625 1.9375 1.0625 3 3 C3.55133201 6.43557305 3.71813657 8.90152758 1.76290894 11.89227295 C-0.06898674 13.97992968 -1.98422578 15.92792738 -3.97265625 17.8671875 C-4.68852402 18.58738068 -5.40439178 19.30757385 -6.14195251 20.04959106 C-7.65767188 21.56569132 -9.1821327 23.07309573 -10.71459961 24.57226562 C-13.05289981 26.86558448 -15.35458881 29.19149169 -17.65429688 31.5234375 C-19.13334963 32.99426901 -20.61440587 34.46308915 -22.09765625 35.9296875 C-22.78336197 36.62440155 -23.46906769 37.3191156 -24.17555237 38.03488159 C-28.26149537 41.98378813 -31.03084803 44.07474705 -37 44 C-40.04421586 42.04857958 -40.81461275 40.74154902 -41.6875 37.25 C-39.85369917 28.58112333 -29.07532196 20.92182803 -22.90063477 14.77026367 C-21.17019863 13.04525287 -19.4452551 11.31487572 -17.72070312 9.58398438 C-16.62011271 8.48405367 -15.51921272 7.38443262 -14.41796875 6.28515625 C-13.90340622 5.76856949 -13.38884369 5.25198273 -12.85868835 4.71974182 C-8.45235023 0.34247495 -6.29989971 -0.44209823 0 0 Z " fill="#1C00AA" transform="translate(369,131)"/>
<path d="M0 0 C4.40279826 2.85446646 7.74302546 6.69073447 11.12890625 10.6484375 C13.89462151 13.83731828 16.79528879 16.80288464 19.83984375 19.7265625 C20.67451172 20.5309375 21.50917969 21.3353125 22.36914062 22.1640625 C24.0995651 23.82211181 25.83939093 25.47039813 27.58789062 27.109375 C28.82635742 28.31207031 28.82635742 28.31207031 30.08984375 29.5390625 C30.84128662 30.25271973 31.59272949 30.96637695 32.36694336 31.70166016 C34.47762279 34.67219927 34.46379276 36.42979677 34 40 C31.9375 42.4375 31.9375 42.4375 29 44 C23.82817404 43.91195915 21.07090499 42.75597219 17.39671326 39.10214233 C16.88294632 38.56054474 16.36917938 38.01894714 15.83984375 37.4609375 C15.28688126 36.90185699 14.73391876 36.34277649 14.16419983 35.76675415 C12.40739318 33.98313538 10.67278259 32.17953946 8.9375 30.375 C7.7689231 29.1848758 6.59901223 27.99605986 5.42773438 26.80859375 C2.25089751 23.57028131 -0.91622686 20.32739619 -4 17 C-4.55750946 16.39939758 -5.11501892 15.79879517 -5.68942261 15.17999268 C-6.23462555 14.57226013 -6.77982849 13.96452759 -7.34155273 13.33837891 C-7.8375145 12.7893692 -8.33347626 12.2403595 -8.84446716 11.67471313 C-10.84530693 8.77489711 -10.58004223 6.35135513 -10 3 C-7.76021541 -1.08431308 -4.22321286 -0.69232998 0 0 Z " fill="#1D01AA" transform="translate(138,131)"/>
<path d="M0 0 C2.15429688 1.34570312 2.15429688 1.34570312 4 4 C4.61124168 7.65185919 4.56005864 11.27336059 4.53125 14.96875 C4.5350769 16.04120972 4.53890381 17.11366943 4.54284668 18.21862793 C4.54556716 20.48479146 4.53819653 22.75098631 4.52148438 25.01708984 C4.50007794 28.48736528 4.52128275 31.95557027 4.546875 35.42578125 C4.54423175 37.62760874 4.53910683 39.82943494 4.53125 42.03125 C4.53934692 43.06987183 4.54744385 44.10849365 4.55578613 45.17858887 C4.46255429 52.33480288 4.46255429 52.33480288 2.15429688 55.65429688 C-0.81376902 57.50832897 -2.56428668 57.57261889 -6 57 C-8.15429688 55.65429688 -8.15429688 55.65429688 -10 53 C-10.61124168 49.34814081 -10.56005864 45.72663941 -10.53125 42.03125 C-10.5350769 40.95879028 -10.53890381 39.88633057 -10.54284668 38.78137207 C-10.54556716 36.51520854 -10.53819653 34.24901369 -10.52148438 31.98291016 C-10.50007794 28.51263472 -10.52128275 25.04442973 -10.546875 21.57421875 C-10.54423175 19.37239126 -10.53910683 17.17056506 -10.53125 14.96875 C-10.53934692 13.93012817 -10.54744385 12.89150635 -10.55578613 11.82141113 C-10.46255429 4.66519712 -10.46255429 4.66519712 -8.15429688 1.34570312 C-5.18623098 -0.50832897 -3.43571332 -0.57261889 0 0 Z " fill="#1900AC" transform="translate(253,96)"/>
</svg>
