<?xml version="1.0" encoding="UTF-8"?>
<svg version="1.1" xmlns="http://www.w3.org/2000/svg" width="500" height="500">
<path d="M0 0 C3.12276692 0.05606536 6.23537767 0.02063354 9.3581543 -0.02416992 C21.89482512 -0.03127826 29.32930253 1.36654075 39.42651367 9.1184082 C42.04730686 10.54749963 44.73197757 11.72887717 47.48901367 12.8684082 C48.15892334 13.15296875 48.82883301 13.4375293 49.51904297 13.73071289 C57.22563257 16.95335162 65.06638851 19.48519212 73.12255859 21.67602539 C74.11519211 21.94614441 75.10782562 22.21626343 76.13053894 22.49456787 C77.26704643 22.80336884 77.26704643 22.80336884 78.42651367 23.1184082 C78.5198141 32.63806673 78.59057965 42.15756423 78.63376236 51.67758274 C78.65450368 56.09967435 78.68257018 60.5214497 78.72827148 64.94335938 C78.77221597 69.22280352 78.79575149 73.50194641 78.80602264 77.78159904 C78.81332795 79.40203522 78.82758909 81.02245774 78.8494339 82.64276314 C79.18509446 108.60833297 68.90743348 128.63941798 51.13354492 147.34106445 C40.68683001 158.05912261 28.87092918 166.26306256 15.36401367 172.6809082 C14.66211914 173.01541992 13.96022461 173.34993164 13.23706055 173.69458008 C7.73072199 176.20707846 3.65849186 177.77245099 -2.38598633 176.0012207 C-3.78996517 175.43507862 -5.18562403 174.84798383 -6.57348633 174.2434082 C-7.3153418 173.92823242 -8.05719727 173.61305664 -8.8215332 173.28833008 C-19.70837509 168.49215936 -29.45667361 161.7243367 -38.57348633 154.1184082 C-39.67756836 153.21541992 -39.67756836 153.21541992 -40.80395508 152.29418945 C-59.07184981 136.79320477 -71.76609622 115.07705112 -73.74271011 91.06244659 C-73.99351507 86.22010233 -73.97025594 81.37970786 -73.93676758 76.5324707 C-73.93624706 75.01313274 -73.93677214 73.4937941 -73.9382782 71.97445679 C-73.93818956 68.82995219 -73.92797056 65.68570986 -73.90966797 62.54125977 C-73.88670801 58.50843997 -73.88649729 54.47599237 -73.89318562 50.44312477 C-73.89651703 47.32395091 -73.88991577 44.20486248 -73.88005638 41.0857048 C-73.8762102 39.596922 -73.87505376 38.10812972 -73.87664223 36.6193428 C-73.87701157 34.55455341 -73.86443981 32.49025317 -73.84814453 30.42553711 C-73.84123344 28.66592148 -73.84123344 28.66592148 -73.83418274 26.87075806 C-73.57348633 24.1184082 -73.57348633 24.1184082 -71.57348633 22.1184082 C-68.70287572 21.32825044 -65.84449661 20.61338409 -62.94848633 19.9309082 C-52.54106876 17.31849613 -42.04325659 13.99959924 -33.14331055 7.82080078 C-22.43048192 0.55470096 -12.74414324 -0.26037178 0 0 Z M-41.57348633 80.1184082 C-44.06624711 82.67207413 -46.3803906 85.30406011 -48.57348633 88.1184082 C-42.78924976 99.34663214 -30.89929628 106.07880079 -19.32348633 110.1809082 C-15.78815709 111.49690666 -15.78815709 111.49690666 -13.57348633 110.1184082 C-13.97180664 109.68270508 -14.37012695 109.24700195 -14.78051758 108.7980957 C-20.27201325 102.62517356 -23.06021666 97.25110489 -23.88598633 88.9934082 C-23.20810889 80.58772798 -19.78266296 73.629879 -14.57348633 67.1184082 C-24.56250539 67.1184082 -34.30453879 73.79708181 -41.57348633 80.1184082 Z M19.42651367 67.1184082 C20.02399414 67.84543945 20.02399414 67.84543945 20.63354492 68.5871582 C26.66417167 76.21714824 29.05113115 82.319679 28.77807617 92.1496582 C27.91943623 99.40039552 24.83979178 104.29034935 19.42651367 109.1184082 C19.09651367 109.7784082 18.76651367 110.4384082 18.42651367 111.1184082 C31.55154172 108.93090353 42.69264836 102.28997476 51.77026367 92.62231445 C53.61087901 90.33857213 53.61087901 90.33857213 53.43041992 88.1027832 C49.4634015 80.26136158 41.84445154 75.36876772 34.23901367 71.5559082 C33.24212524 71.05462402 33.24212524 71.05462402 32.22509766 70.54321289 C27.93534494 68.51736319 24.14897882 67.56554174 19.42651367 67.1184082 Z " fill="#FC3032" transform="translate(247.573486328125,160.881591796875)"/>
<path d="M0 0 C1.17912964 -0.00669708 2.35825928 -0.01339417 3.57312012 -0.02029419 C6.05056392 -0.02502902 8.52809725 -0.01231304 11.00537109 0.01708984 C14.77251357 0.05460051 18.53381788 0.01736652 22.30078125 -0.02734375 C24.72136691 -0.02271759 27.14194896 -0.01374796 29.5625 0 C30.67427612 -0.01416962 31.78605225 -0.02833923 32.93151855 -0.04293823 C41.47406116 0.13408207 46.48847987 2.94333202 53.28125 7.9296875 C67.2644584 16.29529861 83.12243091 21.50623271 99.26171875 23.60546875 C101.28125 23.9296875 101.28125 23.9296875 102.28125 24.9296875 C102.39768911 27.52277266 102.44925604 30.08957739 102.45825195 32.68383789 C102.46482315 33.4970903 102.47139435 34.31034271 102.47816467 35.14823914 C102.49797491 37.85794158 102.50958739 40.56758795 102.51953125 43.27734375 C102.52360678 44.20525663 102.5276823 45.13316952 102.53188133 46.08920097 C102.55279105 51.01592666 102.56706225 55.94262423 102.57641602 60.86938477 C102.58739269 65.92258438 102.62167535 70.97533285 102.66158772 76.02837467 C102.68796587 79.93990295 102.69612726 83.85132819 102.69969749 87.76293755 C102.70452186 89.62256294 102.7160148 91.48218506 102.73473549 93.34172249 C102.88662687 109.45209428 100.78747875 123.40580111 93.28125 137.9296875 C92.88679687 138.77273438 92.49234375 139.61578125 92.0859375 140.484375 C78.05694217 168.79438355 49.94762908 188.71653796 21.27734375 200.125 C9.29904115 203.34211908 -2.58469619 196.40976788 -12.73583984 190.5847168 C-21.76480277 185.23905317 -31.01147331 179.4243768 -38.09375 171.59765625 C-39.84185935 169.73607651 -39.84185935 169.73607651 -42.5703125 167.63671875 C-45.88730356 164.90547025 -48.48031 161.82587631 -51.09375 158.4296875 C-51.56707764 157.81657715 -52.04040527 157.2034668 -52.52807617 156.57177734 C-68.79803694 135.17363053 -74.23849541 113.42464965 -74.08203125 86.9375 C-74.08151108 85.17153931 -74.08203483 83.40557804 -74.08354187 81.63961792 C-74.08345306 77.97726564 -74.07319768 74.3151377 -74.05493164 70.65283203 C-74.03201075 65.95415164 -74.03175217 61.255791 -74.03844929 56.55706978 C-74.04178072 52.92834613 -74.03517873 49.29969592 -74.02532005 45.67098618 C-74.02147104 43.9365871 -74.0203186 42.20217987 -74.0219059 40.46777725 C-74.02227508 38.06055116 -74.00970602 35.65374518 -73.9934082 33.24658203 C-73.99588562 32.53085022 -73.99836304 31.81511841 -74.00091553 31.07769775 C-73.94752394 26.15846144 -73.94752394 26.15846144 -71.71875 23.9296875 C-69.90966797 23.43066406 -69.90966797 23.43066406 -67.7109375 23.0703125 C-66.89689453 22.9273877 -66.08285156 22.78446289 -65.24414062 22.63720703 C-63.93219727 22.41073486 -63.93219727 22.41073486 -62.59375 22.1796875 C-46.87634286 19.2432516 -31.71018596 13.70677435 -18.65820312 4.29638672 C-12.42448542 0.31604893 -7.2694656 -0.09264954 0 0 Z M-24.05641174 15.73832703 C-34.47389074 23.20430013 -49.51705483 26.54324782 -61.98144531 28.99707031 C-62.87164368 29.17296692 -63.76184204 29.34886353 -64.67901611 29.53009033 C-65.3521283 29.6619574 -66.02524048 29.79382446 -66.71875 29.9296875 C-66.81205035 40.08398091 -66.88281618 50.23816982 -66.92599869 60.39280701 C-66.94673992 65.10968327 -66.97480649 69.82626305 -67.02050781 74.54296875 C-67.06445226 79.10770518 -67.08798789 83.67215918 -67.09825897 88.23709106 C-67.10556426 89.9655501 -67.11982528 91.69399634 -67.14167023 93.42233276 C-67.31469671 107.69939511 -65.90254617 121.43130781 -58.96875 134.2421875 C-58.45332642 135.22952881 -58.45332642 135.22952881 -57.92749023 136.23681641 C-52.56166391 146.25481783 -45.47915117 154.68515121 -37.71875 162.9296875 C-36.92791016 163.81720703 -36.92791016 163.81720703 -36.12109375 164.72265625 C-26.17749022 175.42919612 -12.73737136 183.53474481 0.28125 189.9296875 C0.91562988 190.24824707 1.55000977 190.56680664 2.20361328 190.89501953 C7.76245979 193.57627805 12.75111026 195.42239892 18.9921875 194.20703125 C22.95775052 192.71474915 26.56860389 190.95169502 30.28125 188.9296875 C31.62852029 188.23883013 32.97618284 187.54873724 34.32421875 186.859375 C43.37167886 182.10370038 51.43114331 176.4506756 59.28125 169.9296875 C60.15265625 169.22328125 61.0240625 168.516875 61.921875 167.7890625 C80.9171852 151.66096893 94.0190526 128.79171507 96.28125 103.9296875 C96.5956003 98.08304642 96.51643911 92.22764875 96.4765625 86.375 C96.47282129 84.73591283 96.46997958 83.09682338 96.46798706 81.45773315 C96.46043764 77.19335494 96.44086651 72.92911817 96.4185791 68.66479492 C96.39793074 64.29347648 96.3889452 59.92213465 96.37890625 55.55078125 C96.35761021 47.01035256 96.32358266 38.47003774 96.28125 29.9296875 C95.0039502 29.6721167 93.72665039 29.4145459 92.41064453 29.14916992 C90.70339818 28.79892041 88.99620708 28.44840147 87.2890625 28.09765625 C86.03186401 27.84526184 86.03186401 27.84526184 84.74926758 27.58776855 C69.99946177 24.53842673 53.53620904 18.43048448 41.70507812 8.84179688 C37.01325251 6.22154743 33.05375616 6.24613156 27.7578125 6.1875 C26.73883881 6.16944305 25.71986511 6.15138611 24.67001343 6.13278198 C22.51336351 6.10381971 20.35653871 6.08601402 18.19970703 6.07861328 C14.94899509 6.05499803 11.70611965 5.95680195 8.45703125 5.85546875 C-4.91828519 5.64954854 -13.47371941 7.46901083 -24.05641174 15.73832703 Z " fill="#1800AD" transform="translate(235.71875,149.0703125)"/>
<path d="M0 0 C1.0725 -0.00773438 2.145 -0.01546875 3.25 -0.0234375 C21.71804877 0.02149693 39.12968907 5.9240859 52.625 18.875 C55.37281218 21.83832686 57.75063302 24.65746329 59.625 28.25 C59.11299591 34.60303029 54.84847229 38.80387348 50.625 43.25 C33.2059402 57.94998705 12.78373432 61.65690377 -9.375 60.25 C-13.58343588 59.6657486 -17.38498061 58.69406225 -21.375 57.25 C-22.365 56.89808594 -23.355 56.54617188 -24.375 56.18359375 C-36.98961283 51.30830333 -49.90930556 43.61915459 -56.375 31.25 C-55.62944101 24.48370045 -49.37893317 18.91994431 -44.4453125 14.80859375 C-30.84354699 4.98140131 -16.82207241 -0.12044443 0 0 Z M-42.375 21.25 C-44.86776078 23.80366593 -47.18190428 26.4356519 -49.375 29.25 C-43.59076343 40.47822393 -31.70080995 47.21039259 -20.125 51.3125 C-16.58967077 52.62849846 -16.58967077 52.62849846 -14.375 51.25 C-14.77332031 50.81429687 -15.17164063 50.37859375 -15.58203125 49.9296875 C-21.07352692 43.75676536 -23.86173033 38.38269669 -24.6875 30.125 C-24.00962256 21.71931978 -20.58417664 14.76147079 -15.375 8.25 C-25.36401906 8.25 -35.10605247 14.92867361 -42.375 21.25 Z M18.625 8.25 C19.22248047 8.97703125 19.22248047 8.97703125 19.83203125 9.71875 C25.86265799 17.34874004 28.24961748 23.4512708 27.9765625 33.28125 C27.11792255 40.53198732 24.03827811 45.42194115 18.625 50.25 C18.295 50.91 17.965 51.57 17.625 52.25 C30.75002805 50.06249532 41.89113469 43.42156655 50.96875 33.75390625 C52.80936534 31.47016393 52.80936534 31.47016393 52.62890625 29.234375 C48.66188783 21.39295337 41.04293787 16.50035952 33.4375 12.6875 C32.44061157 12.18621582 32.44061157 12.18621582 31.42358398 11.67480469 C27.13383127 9.64895499 23.34746515 8.69713354 18.625 8.25 Z " fill="#1D01AA" transform="translate(248.375,219.75)"/>
<path d="M0 0 C3.12276692 0.05606536 6.23537767 0.02063354 9.3581543 -0.02416992 C21.89482512 -0.03127826 29.32930253 1.36654075 39.42651367 9.1184082 C42.04730686 10.54749963 44.73197757 11.72887717 47.48901367 12.8684082 C48.15892334 13.15296875 48.82883301 13.4375293 49.51904297 13.73071289 C57.22563257 16.95335162 65.06638851 19.48519212 73.12255859 21.67602539 C74.11519211 21.94614441 75.10782562 22.21626343 76.13053894 22.49456787 C77.26704643 22.80336884 77.26704643 22.80336884 78.42651367 23.1184082 C78.5198141 32.63806673 78.59057965 42.15756423 78.63376236 51.67758274 C78.65450368 56.09967435 78.68257018 60.5214497 78.72827148 64.94335938 C78.77221597 69.22280352 78.79575149 73.50194641 78.80602264 77.78159904 C78.81332795 79.40203522 78.82758909 81.02245774 78.8494339 82.64276314 C79.18509446 108.60833297 68.90743348 128.63941798 51.13354492 147.34106445 C40.68683001 158.05912261 28.87092918 166.26306256 15.36401367 172.6809082 C14.66211914 173.01541992 13.96022461 173.34993164 13.23706055 173.69458008 C7.73072199 176.20707846 3.65849186 177.77245099 -2.38598633 176.0012207 C-3.78996517 175.43507862 -5.18562403 174.84798383 -6.57348633 174.2434082 C-7.3153418 173.92823242 -8.05719727 173.61305664 -8.8215332 173.28833008 C-19.70837509 168.49215936 -29.45667361 161.7243367 -38.57348633 154.1184082 C-39.67756836 153.21541992 -39.67756836 153.21541992 -40.80395508 152.29418945 C-59.07184981 136.79320477 -71.76609622 115.07705112 -73.74271011 91.06244659 C-73.99351507 86.22010233 -73.97025594 81.37970786 -73.93676758 76.5324707 C-73.93624706 75.01313274 -73.93677214 73.4937941 -73.9382782 71.97445679 C-73.93818956 68.82995219 -73.92797056 65.68570986 -73.90966797 62.54125977 C-73.88670801 58.50843997 -73.88649729 54.47599237 -73.89318562 50.44312477 C-73.89651703 47.32395091 -73.88991577 44.20486248 -73.88005638 41.0857048 C-73.8762102 39.596922 -73.87505376 38.10812972 -73.87664223 36.6193428 C-73.87701157 34.55455341 -73.86443981 32.49025317 -73.84814453 30.42553711 C-73.84123344 28.66592148 -73.84123344 28.66592148 -73.83418274 26.87075806 C-73.57348633 24.1184082 -73.57348633 24.1184082 -71.57348633 22.1184082 C-68.70287572 21.32825044 -65.84449661 20.61338409 -62.94848633 19.9309082 C-52.54106876 17.31849613 -42.04325659 13.99959924 -33.14331055 7.82080078 C-22.43048192 0.55470096 -12.74414324 -0.26037178 0 0 Z M-32.57348633 15.1184082 C-35.61901389 16.70077385 -38.73357734 18.07656138 -41.88598633 19.4309082 C-42.60592773 19.75124023 -43.32586914 20.07157227 -44.06762695 20.40161133 C-51.72462526 23.75369026 -59.46707534 26.12996297 -67.57348633 28.1184082 C-67.66697705 36.44735074 -67.73764567 44.7760669 -67.78073502 53.10540771 C-67.80143628 56.97484124 -67.8294252 60.84391069 -67.87524414 64.71313477 C-67.91933719 68.46091178 -67.9427539 72.20834309 -67.9529953 75.95635986 C-67.96027489 77.37222727 -67.97448216 78.78808002 -67.99640656 80.20379639 C-68.37575202 105.7617549 -58.00828513 126.10912677 -40.69848633 144.3684082 C-31.33839354 153.2719111 -20.90748914 160.04562151 -9.57348633 166.1184082 C-8.7768457 166.57473633 -7.98020508 167.03106445 -7.15942383 167.5012207 C-2.71533386 169.95490744 0.39920307 170.44894188 5.42651367 170.1184082 C20.3276881 165.66975661 33.42414727 155.81673685 44.42651367 145.1184082 C45.18319336 144.42360352 45.93987305 143.72879883 46.71948242 143.01293945 C60.65050216 129.8492048 72.111376 110.72911068 72.84883499 91.22094154 C72.90409677 87.69820703 72.86879682 84.18001844 72.81713867 80.6574707 C72.80965424 79.13049063 72.80397177 77.60350078 72.79998779 76.07650757 C72.78490414 72.10783137 72.74577801 68.13976514 72.70117188 64.17132568 C72.65984017 60.10168707 72.64189691 56.03194737 72.62182617 51.9621582 C72.57926144 44.01396536 72.51122778 36.0662632 72.42651367 28.1184082 C71.30664062 27.80170166 70.18676758 27.48499512 69.03295898 27.15869141 C61.23294688 24.92697582 53.5592335 22.71498765 46.17651367 19.3059082 C45.50362305 19.01393555 44.83073242 18.72196289 44.13745117 18.42114258 C40.73842114 16.8890519 37.74041618 15.353243 34.74072266 13.10913086 C25.32127354 6.28145744 17.21041469 5.87212293 5.84326172 6.07543945 C2.99449478 6.11832569 0.1558323 6.07572082 -2.69262695 6.0246582 C-15.06339338 5.98766497 -22.39054545 8.13721974 -32.57348633 15.1184082 Z " fill="#1C00AA" transform="translate(247.573486328125,160.881591796875)"/>
<path d="M0 0 C4.37684602 3.10177311 7.86400812 7.36542051 9.890625 12.33984375 C10.83198725 19.38911452 10.18194534 25.54787765 5.890625 31.33984375 C2.11362827 35.29862107 -1.80746783 38.07053195 -7.28125 38.7109375 C-13.90056479 38.83378505 -19.13513311 38.92776269 -24.55859375 34.83984375 C-29.6753347 29.89065352 -31.27316892 25.08152787 -31.484375 18.15234375 C-31.42349149 10.3418594 -29.12931388 6.35978263 -23.734375 0.96484375 C-16.13807262 -3.73762915 -7.75701183 -4.29078804 0 0 Z " fill="#FA2F33" transform="translate(261.109375,231.66015625)"/>
<path d="M0 0 C0.4065984 4.48930498 0.4065984 4.48930498 -1.3894043 6.74511719 C-2.34713745 7.5132373 -2.34713745 7.5132373 -3.32421875 8.296875 C-4.02353516 8.86277344 -4.72285156 9.42867187 -5.44335938 10.01171875 C-6.55420898 10.87216797 -6.55420898 10.87216797 -7.6875 11.75 C-8.7693457 12.63365234 -8.7693457 12.63365234 -9.87304688 13.53515625 C-13.61999861 16.5121864 -16.17601762 18.29882456 -21 19 C-22.18143096 17.61664079 -23.34465134 16.21771574 -24.5 14.8125 C-25.1496875 14.03519531 -25.799375 13.25789062 -26.46875 12.45703125 C-28.1952605 9.68668659 -28.31838702 8.20092666 -28 5 C-25.75 4.625 -25.75 4.625 -23 5 C-20.6875 8 -20.6875 8 -19 11 C-14.44802924 8.08207002 -10.29973318 4.85732104 -6.1484375 1.390625 C-4 0 -4 0 0 0 Z " fill="#2202A7" transform="translate(263,242)"/>
<path d="M0 0 C1.65 0.33 3.3 0.66 5 1 C5 7.6 5 14.2 5 21 C3.35 21.33 1.7 21.66 0 22 C-1.58937556 20.41062444 -1.12981143 18.76100154 -1.1328125 16.5625 C-1.13410156 15.66789063 -1.13539063 14.77328125 -1.13671875 13.8515625 C-1.13091797 12.44003906 -1.13091797 12.44003906 -1.125 11 C-1.12886719 10.05898437 -1.13273438 9.11796875 -1.13671875 8.1484375 C-1.13542969 7.25382813 -1.13414062 6.35921875 -1.1328125 5.4375 C-1.13112061 4.19806641 -1.13112061 4.19806641 -1.12939453 2.93359375 C-1 1 -1 1 0 0 Z " fill="#2A03A3" transform="translate(248,189)"/>
<path d="M0 0 C4.25314786 1.67642324 7.12101814 4.7175909 10.3125 7.875 C10.87517578 8.40480469 11.43785156 8.93460938 12.01757812 9.48046875 C13.61328125 11.0546875 13.61328125 11.0546875 16 14 C15.64916992 16.18408203 15.64916992 16.18408203 15 18 C10.05120002 17.61168175 7.53827645 15.11315727 4.25 11.6875 C3.75628906 11.20087891 3.26257813 10.71425781 2.75390625 10.21289062 C-1.9081371 5.46782459 -1.9081371 5.46782459 -2 2 C-1.34 1.34 -0.68 0.68 0 0 Z " fill="#2603A5" transform="translate(203,202)"/>
<path d="M0 0 C2.1862793 0.35302734 2.1862793 0.35302734 4 1 C3.65473319 6.30724408 0.79271144 8.84214818 -2.8125 12.375 C-3.34681641 12.93316406 -3.88113281 13.49132812 -4.43164062 14.06640625 C-6.01953125 15.6484375 -6.01953125 15.6484375 -9 18 C-11.1862793 17.64697266 -11.1862793 17.64697266 -13 17 C-12.65473319 11.69275592 -9.79271144 9.15785182 -6.1875 5.625 C-5.65318359 5.06683594 -5.11886719 4.50867188 -4.56835938 3.93359375 C-2.98046875 2.3515625 -2.98046875 2.3515625 0 0 Z " fill="#2102A7" transform="translate(295,202)"/>
</svg>
